<svg
    xmlns="http://www.w3.org/2000/svg" width="360" height="200">
    <defs>
        <linearGradient x1="50%" y1="100%" x2="50%" y2="3.061617e-15%" id="A">
            <stop stop-color="#FFEFF7" stop-opacity="0" offset="0%"/>
            <stop stop-color="#C7F6FF" offset="100%"/>
        </linearGradient>
        <filter x="-22.3%" y="-36.9%" width="136.7%" height="177.0%" filterUnits="objectBoundingBox" id="B">
            <feOffset dx="-10" dy="2" in="SourceAlpha" result="A"/>
            <feGaussianBlur stdDeviation="14" in="A" result="B"/>
            <feColorMatrix values="0 0 0 0 0.584313725 0 0 0 0 0.870588235 0 0 0 0 1 0 0 0 0.3 0" type="matrix" in="B" result="C"/>
            <feMerge>
                <feMergeNode in="C"/>
                <feMergeNode in="SourceGraphic"/>
            </feMerge>
            <filter/></filter>
        <linearGradient x1="57.5066388%" y1="143.426882%" x2="57.5066388%" y2="7.10436462%" id="C">
            <stop stop-color="#3DB9FF" offset="0%"/>
            <stop stop-color="#C0FFFC" offset="100%"/>
        </linearGradient>
        <filter x="-39.5%" y="-18.4%" width="152.6%" height="143.9%" filterUnits="objectBoundingBox" id="D">
            <feOffset dx="-10" dy="2" in="SourceAlpha" result="A"/>
            <feGaussianBlur stdDeviation="2.5" in="A" result="B"/>
            <feColorMatrix values="0 0 0 0 0.439512311 0 0 0 0 0.82550855 0 0 0 0 1 0 0 0 0.362969882 0" type="matrix" in="B" result="C"/>
            <feMerge>
                <feMergeNode in="C"/>
                <feMergeNode in="SourceGraphic"/>
            </feMerge>
            <filter/></filter>
        <linearGradient x1="57.5066379%" y1="95.6371949%" x2="-49.2036193%" y2="-66.9888037%" id="E">
            <stop stop-color="#3DB9FF" offset="0%"/>
            <stop stop-color="#5EDBD5" offset="100%"/>
        </linearGradient>
        <filter x="-39.5%" y="-18.4%" width="152.6%" height="143.9%" filterUnits="objectBoundingBox" id="F">
            <feOffset dx="-10" dy="2" in="SourceAlpha" result="A"/>
            <feGaussianBlur stdDeviation="2.5" in="A" result="B"/>
            <feColorMatrix values="0 0 0 0 0.439512311 0 0 0 0 0.82550855 0 0 0 0 1 0 0 0 0.362969882 0" type="matrix" in="B" result="C"/>
            <feMerge>
                <feMergeNode in="C"/>
                <feMergeNode in="SourceGraphic"/>
            </feMerge>
            <filter/></filter>
        <filter x="-47.9%" y="-22.3%" width="163.8%" height="153.2%" filterUnits="objectBoundingBox" id="G">
            <feOffset dx="-10" dy="2" in="SourceAlpha" result="A"/>
            <feGaussianBlur stdDeviation="2.5" in="A" result="B"/>
            <feColorMatrix values="0 0 0 0 0.439512311 0 0 0 0 0.82550855 0 0 0 0 1 0 0 0 0.362969882 0" type="matrix" in="B" result="C"/>
            <feMerge>
                <feMergeNode in="C"/>
                <feMergeNode in="SourceGraphic"/>
            </feMerge>
            <filter/></filter>
    </defs>
    <g fill="none" fill-rule="evenodd">
        <path d="M.005 139.121c17.002.085 31.456-6.443 43.362-19.585C61.226 99.824 66.304 84.596 96.95 92.21s45.045-44.403 79.78-44.403h66.804C269.052 47.807 282.057 0 306.35 0h57.1v200.47H-1l1.005-61.349z" fill="url(#A)"/>
        <g filter="url(#B)" fill="url(#C)" fill-rule="nonzero">
            <path d="M307.826 88.19c18.373 3.405 32.071 19.549 32.071 38.684 0 20.1-15.118 36.91-35.341 39.126H226.02c-20.223-2.216-35.341-19.026-35.341-39.126 0-21.727 17.579-39.343 39.268-39.343l.783.007c3.651-18.079 19.606-31.488 38.485-31.488 19.104 0 35.216 13.731 38.611 32.14z"/>
            <path d="M164.436 124.14c12.589 2.333 21.975 13.395 21.975 26.506 0 13.772-10.359 25.291-24.216 26.81h-53.813c-13.857-1.519-24.216-13.037-24.216-26.81 0-14.887 12.045-26.958 26.907-26.958l.536.005c2.502-12.388 13.434-21.576 26.37-21.576 13.09 0 24.13 9.409 26.457 22.023z"/>
        </g>
        <g filter="url(#D)">
            <path d="M205.466 121.205h36.25c5.523 0 10 4.477 10 10v36.25c0 5.523-4.477 10-10 10h-36.25c-5.523 0-10-4.477-10-10v-36.25c0-5.523 4.477-10 10-10z" fill="url(#E)"/>
            <path d="M225.49 151.229a2.53 2.53 0 0 1 2.531 2.531v10.125a2.53 2.53 0 0 1-2.531 2.531h-3.375a2.53 2.53 0 0 1-2.531-2.531V153.76a2.53 2.53 0 0 1 2.531-2.531h3.375zm-11.812-3.375a2.53 2.53 0 0 1 2.531 2.531v13.5a2.53 2.53 0 0 1-2.531 2.531h-3.375a2.53 2.53 0 0 1-2.531-2.531v-13.5a2.53 2.53 0 0 1 2.531-2.531h3.375zm23.625-3.375a2.53 2.53 0 0 1 2.531 2.531v16.875a2.53 2.53 0 0 1-2.531 2.531h-3.375a2.53 2.53 0 0 1-2.531-2.531V147.01a2.53 2.53 0 0 1 2.531-2.531h3.375zm-3.077-9.681l-1.992.014c-.699.005-1.27-.558-1.275-1.257s.558-1.27 1.257-1.274l5.077-.036a1.26 1.26 0 0 1 1.183.789c.057.135.093.302.093.477v5.084c0 .699-.567 1.266-1.266 1.266s-1.266-.567-1.266-1.266v-2.029l-11.339 11.34c-.37.37-.93.474-1.409.261l-15.187-6.75c-.639-.284-.926-1.032-.643-1.67s1.032-.926 1.671-.643l14.393 6.397 10.703-10.703z" fill="#F4FFFE" fill-rule="nonzero"/>
        </g>
        <g filter="url(#F)">
            <path d="M264.946 89.644h56.25v56.25h-56.25z"/>
            <path d="M274.946 89.644h36.25c5.523 0 10 4.477 10 10v36.25c0 5.523-4.477 10-10 10h-36.25c-5.523 0-10-4.477-10-10v-36.25c0-5.523 4.477-10 10-10z" fill="url(#E)"/>
            <path d="M279.236 108.854c-.256-.393-.202-.912.13-1.244l3.546-3.546c.332-.332.851-.386 1.244-.13l2.744 1.79c.648-.333 1.322-.612 2.017-.836l.675-3.206c.097-.459.502-.788.971-.788h5.016c.469 0 .875.329.971.788l.675 3.206c.695.224 1.369.503 2.017.836l2.744-1.79c.393-.256.912-.202 1.244.13l3.546 3.546c.332.332.386.851.13 1.244l-1.79 2.744a13.46 13.46 0 0 1 .836 2.017l3.205.675c.459.097.788.502.788.971v5.016c0 .469-.329.875-.788.971l-3.205.675c-.224.695-.504 1.369-.836 2.017l1.79 2.745c.256.393.202.912-.13 1.244l-3.546 3.546a.99.99 0 0 1-1.244.129l-2.744-1.79c-.648.333-1.322.612-2.017.836l-.675 3.206c-.097.459-.502.788-.971.788h-5.016c-.469 0-.875-.329-.971-.788l-.675-3.206c-.695-.224-1.369-.503-2.017-.836l-2.744 1.79a.99.99 0 0 1-1.244-.129l-3.546-3.546c-.332-.332-.386-.851-.13-1.244l1.79-2.745c-.332-.647-.612-1.322-.836-2.017l-3.205-.675c-.459-.097-.788-.502-.788-.971v-5.016c0-.469.329-.875.788-.971l3.205-.675a13.46 13.46 0 0 1 .836-2.017l-1.79-2.744zm13.835 15.863a6.95 6.95 0 0 0 6.949-6.948 6.95 6.95 0 0 0-6.949-6.949 6.95 6.95 0 0 0-6.949 6.949 6.95 6.95 0 0 0 6.949 6.948zm0-3.073a4.42 4.42 0 0 0 4.419-4.419 4.42 4.42 0 0 0-4.419-4.419 4.42 4.42 0 0 0-4.419 4.419 4.42 4.42 0 0 0 4.419 4.419z" fill="#F4FFFE" fill-rule="nonzero"/>
        </g>
        <g filter="url(#G)">
            <path d="M139.551 83.721h26.169c5.523 0 10 4.477 10 10v26.169c0 5.523-4.477 10-10 10h-26.169c-5.523 0-10-4.477-10-10V93.721c0-5.523 4.477-10 10-10z" fill="url(#E)"/>
            <path d="M152.01 112.46c-1.362.051-2.805.198-4.195.432-.465-1.609-.755-3.467-.806-5.461h5.001v5.029zm1.252-.02v-5.009h5.001c-.05 1.956-.33 3.78-.779 5.367-1.378-.224-2.818-.347-4.222-.358zm-1.252-11.688v5.427h-5.001c.054-2.145.386-4.131.914-5.821a30.58 30.58 0 0 0 4.087.394zm1.252.006c1.36-.026 2.756-.155 4.094-.377.524 1.685.853 3.664.907 5.798h-5.001v-5.421zm-1.252 19.18c-3.608-.169-6.836-1.793-9.111-4.298 1.04-.545 2.48-.99 4.061-1.316 1.114 3.096 2.915 5.228 5.05 5.578v.037zm1.252 0v-.037c2.156-.354 3.971-2.525 5.083-5.672 1.555.323 2.974.782 4.077 1.355-2.277 2.536-5.526 4.183-9.16 4.353zm-1.252-1.315c-1.504-.371-2.873-2.059-3.798-4.529a32.13 32.13 0 0 1 3.798-.381v4.91zm1.252 0v-4.93c1.274.01 2.579.118 3.832.311-.925 2.52-2.309 4.244-3.832 4.619zm-1.252-24.95v.036c-2.052.337-3.796 2.32-4.918 5.224-1.496-.307-2.87-.728-3.929-1.245 2.257-2.344 5.376-3.853 8.846-4.015zm1.252 0c3.463.162 6.576 1.664 8.831 4-1.066.536-2.424.969-3.907 1.28-1.122-2.915-2.868-4.905-4.925-5.243v-.036zm-1.252 1.314V99.5a29.41 29.41 0 0 1-3.659-.34c.92-2.276 2.229-3.819 3.659-4.172zm1.252 0c1.435.354 2.747 1.907 3.668 4.195a27.36 27.36 0 0 1-3.668.324v-4.519zm-13.759 12.444h6.253c.049 2.053.339 3.988.821 5.695-1.758.373-3.355.89-4.489 1.529-1.517-2.035-2.458-4.523-2.585-7.224zm0-1.252c.133-2.833 1.162-5.432 2.811-7.519 1.16.615 2.694 1.11 4.368 1.464-.545 1.793-.873 3.856-.926 6.054h-6.253zm26.265 1.252a13.08 13.08 0 0 1-2.541 7.165c-1.211-.668-2.783-1.199-4.506-1.566.466-1.684.746-3.585.794-5.599h6.253zm0-1.252h-6.253c-.052-2.19-.378-4.247-.92-6.035 1.659-.36 3.174-.868 4.347-1.503 1.658 2.09 2.693 4.696 2.826 7.538z" fill="#F4FFFE" fill-rule="nonzero"/>
        </g>
    </g>
</svg>